<svg width="90" height="90" viewBox="0 0 90 90" fill="none" xmlns="http://www.w3.org/2000/svg"><path d="M75.067 73.672h-4.454v1.375h1.431v5.96h1.554v-5.96h1.469v-1.375zm-8.446 7.335v-7.335h-1.557v2.767h-2.692v-2.767h-1.556v7.335h1.556v-3.218h2.692v3.218h1.557zm-17.962-1.725a3.836 3.836 0 001.557 1.416c.655.33 1.404.494 2.243.494.785 0 1.466-.148 2.046-.452a3.667 3.667 0 001.419-1.315c.37-.578.553-1.184.553-1.827l-.012-.31h-4.056v1.31h2.335c-.224.435-.52.752-.88.956-.37.197-.814.305-1.348.305-.817 0-1.503-.252-2.061-.742-.559-.492-.832-1.091-.832-1.8 0-.684.264-1.262.804-1.744.536-.475 1.198-.717 1.994-.717.914 0 1.712.327 2.398.987l1.08-.973c-.494-.485-1-.832-1.512-1.032a5.467 5.467 0 00-1.974-.353c-1.34 0-2.43.428-3.27 1.284-.706.717-1.057 1.56-1.057 2.534 0 .706.19 1.366.573 1.98zm-6.417 1.724h1.524v-7.335h-1.524v7.335zm-7.769-7.334v7.335h3.777v-1.333h-2.244v-6.002h-1.533zm-4.374 1.371v-1.371H25.69v7.335h4.41v-1.37h-2.887v-1.93H30.1v-1.342h-2.887v-1.322H30.1zm-10.675 3.641c-.199.348-.46.592-.78.74-.314.145-.823.219-1.526.219h-.716v-4.62h.522c.956 0 1.65.194 2.082.579.483.426.72 1.03.72 1.807 0 .505-.098.933-.302 1.275zm1.55.312c.206-.469.31-.99.31-1.558 0-.795-.186-1.487-.552-2.08-.373-.597-.843-1.027-1.415-1.291-.569-.263-1.442-.395-2.617-.395h-1.82v7.335h1.85c1.045 0 1.78-.06 2.206-.181a3.063 3.063 0 001.181-.649 3.2 3.2 0 00.858-1.181zm52.1-15.345v2.002h-.726v1.17h.726v4.25h1.414v-4.25h.839v-1.17h-.84v-2.002h-1.413zm-3.932 7.424v-3.582c0-.625-.164-1.096-.491-1.42a1.997 1.997 0 00-1.426-.562c-.273 0-.54.053-.8.156-.262.102-.554.283-.875.54v-.555h-1.413v5.423h1.413v-2.174c0-.566.019-.93.063-1.1.078-.327.222-.58.427-.766.208-.186.45-.274.736-.274a.92.92 0 01.559.164c.15.112.258.272.317.485.061.215.088.644.088 1.29v2.375h1.403zM58.52 69.52c-.288.299-.66.447-1.105.447-.43 0-.791-.152-1.085-.453-.295-.304-.447-.685-.447-1.154 0-.463.15-.846.438-1.144.286-.296.652-.443 1.09-.443.449 0 .82.142 1.11.436.294.292.439.673.439 1.146 0 .48-.145.869-.44 1.165zm1.789 1.553v-5.42h-1.413v.598a2.493 2.493 0 00-1.773-.74c-.74 0-1.364.27-1.88.807-.512.532-.77 1.217-.77 2.055 0 .807.266 1.482.798 2.026.532.544 1.163.815 1.89.815.327 0 .627-.055.905-.168.276-.11.556-.291.83-.542v.57h1.413zm-10.974-7.422v2.002h-.73v1.17h.73v4.25h1.411v-4.25h.844v-1.17h-.844v-2.002h-1.411zm-3.682 5.871c0-.361-.1-.678-.302-.944-.203-.27-.58-.534-1.126-.794l-.52-.249c-.226-.108-.365-.19-.425-.251a.309.309 0 01-.084-.205c0-.093.045-.173.138-.239.088-.067.21-.096.37-.096.29 0 .616.17.97.505l.877-.84c-.225-.288-.5-.51-.82-.663a2.349 2.349 0 00-1.035-.234c-.538 0-.976.152-1.321.455-.344.306-.515.672-.515 1.101 0 .662.456 1.218 1.368 1.657l.476.231c.413.198.618.403.618.613 0 .11-.059.213-.174.3-.11.085-.262.127-.447.127-.176 0-.374-.055-.596-.171a2.014 2.014 0 01-.586-.452l-.867.913c.49.618 1.148.928 1.97.928.618 0 1.114-.16 1.48-.486.372-.319.55-.722.55-1.206zm-7.311-2.029c0-.625-.167-1.096-.495-1.42a1.99 1.99 0 00-1.425-.562c-.272 0-.54.053-.803.156-.258.102-.552.283-.873.54v-.555h-1.414v5.423h1.414v-2.174c0-.566.022-.93.064-1.1.078-.327.22-.58.426-.766.206-.186.453-.274.74-.274.22 0 .407.054.556.164a.895.895 0 01.318.485c.058.215.087.644.087 1.29v2.375h1.405v-3.582zm-13.056.869c0-.458.146-.833.438-1.127.29-.294.654-.444 1.095-.444.445 0 .818.15 1.1.438.29.29.435.67.435 1.133 0 .465-.146.847-.44 1.14-.292.295-.66.444-1.104.444-.441 0-.805-.144-1.092-.442-.286-.288-.432-.67-.432-1.142zm3.016 2.476a2.813 2.813 0 001.477-2.478c0-.511-.133-.983-.39-1.42a2.82 2.82 0 00-1.096-1.042 3.073 3.073 0 00-1.501-.388c-.737 0-1.385.249-1.952.74-.646.565-.969 1.274-.969 2.117 0 .792.286 1.463.86 2.017a2.86 2.86 0 002.066.831c.55 0 1.05-.127 1.505-.377zm-10.423-4.053c.294 0 .546.038.762.13.219.084.434.236.656.463l1.179-.625a2.86 2.86 0 00-1.094-.919 3.478 3.478 0 00-1.508-.323c-.605 0-1.152.127-1.642.38-.489.255-.868.6-1.14 1.043a2.687 2.687 0 00-.408 1.447c0 .76.278 1.421.838 1.987.564.562 1.34.846 2.327.846 1.107 0 1.959-.38 2.562-1.133l-1.114-.736c-.353.414-.848.62-1.479.62-.511 0-.922-.145-1.238-.435-.316-.294-.474-.667-.474-1.127 0-.47.163-.861.489-1.166.328-.303.758-.451 1.284-.451z" fill="#fff"/><path d="M69.525 73.489c-.526.466-.975 1.083-1.43 2.001l-.369.253V82.1h-7.995v-1.27c-.306.169-.608.34-.926.5-1.223-.688-3.643.405-5.096 1.343-.828.27-1.664.547-2.532.668-4.147-.608-7.65 1.307-11.786.338-1.86.59-4.367-1.394-5.844-.49-.958-.263-1.907-.656-2.844-1.09h-6.105v-2.866a9.088 9.088 0 00-1.113-.346c-.373-.234-.796-.501-1.162-.803-.057.468-.154.927-.342 1.35a4.283 4.283 0 01-1.142 1.57 4.176 4.176 0 01-1.237.727c7.213 4.98 15.947 7.916 25.376 7.916 9.688 0 18.652-3.09 25.976-8.322v-5.187h-1.43v-2.65zm7.526-59.775c-.012.055-.02.113-.032.17V35.97c.44.732.704 1.862 1.611 2.386.08 1.36-.732 3.691 1.57 3.617-.62 2.106-.454 4.421.425 5.944-.208.926-.976 1.384-1.038 2.233.05 1.097-.016 2.112-.07 3.148-.722 2.606-.043 4.081-.929 6.046-.327.994-.589 2.117-.968 3.117l-1.045 2.836c-.053.042-.1.086-.15.13v2.49h-.84l-.194 4.24.02.01v.407h.753v3.565h-1.469v2.172c9.21-8.196 15.028-20.116 15.028-33.41 0-12.134-4.837-23.128-12.672-31.187zM7.238 58.917c-.174-.117-.324-.158-.433-.296-.13-.644-.72-1.424-.275-1.952-1.242-5.22-.995-12.303-1.068-17.387.671-4.255 2.95-7.328 3.74-12.637.159-.372.392-.71.57-.983.804-.648 1.552-1.21 2.274-1.759.38-.69.915-1.19 1.379-1.825 1.016.605 1.31-.304 1.413-1.798 1.313-1.48 2.566-3.143 4.115-4.396.623-.493 1.176-1.07 1.776-1.454 2.923-2.024 6.066-3.646 9.36-4.773 1.928-.8 3.884-1.623 5.949-2.029.209.286.406.51.537.815.73-.231 1.376-.508 2.132-.677.68-.076 1.443-.154 2.197-.246.641.544 1.24.618 1.838.591.29-.651.676-1.243 1.081-1.9.864-.06 1.803.02 2.666.109 1.24.218 2.474.363 3.666.776l.683.124c.83.187 1.71.488 2.477.884 1.357.252 2.672.43 3.965.943 1.355.53 2.895 1.181 3.225.019L60.31 6.86c1.86.494 2.424-1.754 1.463-3.12l-4.146-1.25c-.882-.304-1.662-.757-2.484-1.164a45.212 45.212 0 00-3.734-.708c-.484.255-.966.495-1.5.752-.65-.31-1.17-.724-1.712-1.092a45.87 45.87 0 00-3.222-.126C20.259.152.223 20.186.223 44.9c0 12.577 5.208 23.926 13.563 32.055v-4.377h1.696c-3.59-3.764-5.994-8.707-8.244-13.66z" fill="#fff"/><path d="M52.742 48.764V31.433c0-.02-.027-2.027 1.325-3.436.892-.93 2.182-1.401 3.833-1.401 3.752 0 4.842.029 5.16.045v22.063a6.426 6.426 0 01-.733 2.353c-.9 1.632-2.392 2.412-4.418 2.315-2-.094-3.476-.897-4.388-2.382a5.642 5.642 0 01-.779-2.226zm-6.358-1.015a.147.147 0 01.023.026l-.023-.026zm-.628-24.598a9.7 9.7 0 00-1.234 1.3l-.002-.001s-2.606 2.57-2.847 7.907h-.025l.003.703c0 .029-.003.056-.003.085l.003.001.051 13.912H41.7c0 .044.003.083.004.125l.002.465h.013c.15 4.17 1.825 6.681 2.618 7.638v.002l.012.013c.24.288.4.438.4.438l.015-.01c3.173 3.207 6.247 3.392 6.878 3.392l.064-.001c.086.003 1.07.04 2.56.04a94.98 94.98 0 004.342-.1c1.635-.076 2.98-.951 3.888-2.531.248-.43.431-.856.564-1.224V59h10.842V10.126H63.059v10.842H51.53c-2.705 0-4.633 1.187-5.774 2.183zm-10.138 9.147h4.348s.216-4.494-2.442-7.772h-.005c-2.258-3.171-7.323-3.349-8.407-3.349-.116 0-.181.002-.181.002h-6.442c-2.329.11-4.311.755-5.89 1.917-1.265.93-2.275 2.19-3 3.745-1.232 2.64-1.217 5.177-1.216 5.282v16.874c.235 2.352.947 4.364 2.117 5.978.936 1.293 2.166 2.335 3.656 3.094 2.53 1.292 4.896 1.32 4.996 1.322h5.004c4.075 0 6.549-1.183 7.907-2.177a8.135 8.135 0 001.008-.87c2.977-2.54 2.824-8.036 2.824-8.036h-5.652l.004.142c.001.023.063 2.342-1.392 3.863-.828.867-1.989 1.314-3.452 1.331h-.11c-2.047 0-3.616-.657-4.66-1.953a4.88 4.88 0 01-.96-1.952V33.434l-.001-.015c-.002-.03-.255-2.98 1.39-4.882.856-.99 2.08-1.531 3.639-1.611 1.72-.089 3.077.356 4.022 1.32 1.393 1.422 1.46 3.545 1.463 3.838v.036l-.004.166h.004v.012h1.432z" fill="#fff"/></svg>