<?xml version="1.0" encoding="utf-8"?>
<!-- Generator: Adobe Illustrator 19.2.0, SVG Export Plug-In . SVG Version: 6.00 Build 0)  -->
<svg version="1.1" id="Слой_1" xmlns="http://www.w3.org/2000/svg" xmlns:xlink="http://www.w3.org/1999/xlink" x="0px" y="0px"
	 viewBox="0 0 460.9 150.3" style="enable-background:new 0 0 460.9 150.3;" xml:space="preserve">
<style type="text/css">
	.st0{fill:#FFFFFF;}
</style>
<path class="st0" d="M460.9,92.4V1.5h-19.8v56l-42.6-56h-18.4v90.9h19.7V34.7l44,57.8H460.9z M342.1,1.5h-20v90.9h20V1.5z
	 M290.8,92.4V74.3h-45.3V1.5h-20v90.9H290.8z M195.1,92.4V74.3h-45.3V1.5h-20v90.9H195.1z M75.7,47.3c0,15.6-11.1,28.3-27.2,28.3
	c-16.2,0-27.6-13-27.6-28.6v-0.2c0-15.6,11.2-28.3,27.3-28.3c16.1,0,27.5,13,27.5,28.5V47.3z M96.6,47v-0.2C96.6,20.9,76.5,0,48.5,0
	C20.4,0,0,21.2,0,47v0.3C0,73.1,20.1,94,48.2,94C76.2,94,96.6,72.9,96.6,47"/>
<path class="st0" d="M448,124.5v22h12.9v3.4h-17v-25.4H448z M406.4,139h9.2l-4.4-11.1H411L406.4,139z M413.6,124.5l10.9,25.4h-4.3
	l-3.2-7.3H405l-3.1,7.3h-4.2l11.1-25.4H413.6z M358.2,124.5l16.3,20.2l-0.2-6.1v-14.1h4v25.4h-4.4l-16.2-20.3l0.2,7.2v13.1h-4v-25.4
	H358.2z M310.7,137.1c0,1.6,0.2,3,0.8,4.2c0.5,1.2,1.2,2.2,2,3c0.9,0.8,1.9,1.4,3,1.8c1.1,0.4,2.4,0.6,3.6,0.6
	c1.3,0,2.5-0.2,3.7-0.6c1.1-0.4,2.1-0.9,3-1.8c0.9-0.8,1.5-1.8,2.1-3c0.5-1.2,0.7-2.6,0.7-4.3c0-1.6-0.2-3-0.7-4.2
	c-0.5-1.2-1.2-2.2-2.1-3c-0.8-0.8-1.8-1.4-3-1.8c-1.1-0.4-2.4-0.6-3.7-0.6c-1.2,0-2.5,0.2-3.6,0.6c-1.1,0.4-2.1,1-3,1.8
	c-0.8,0.8-1.5,1.8-2,3C310.9,134.1,310.7,135.5,310.7,137.1 M333.7,137.1c0,2-0.3,3.8-1,5.4c-0.7,1.6-1.7,3-2.9,4.1
	c-1.2,1.1-2.7,2-4.3,2.7c-1.7,0.7-3.4,0.9-5.4,0.9c-1.9,0-3.7-0.3-5.4-0.9c-1.7-0.7-3.1-1.5-4.3-2.7c-1.2-1.2-2.2-2.5-2.9-4.1
	c-0.7-1.6-1-3.4-1-5.4c0-1.9,0.4-3.7,1-5.3c0.7-1.7,1.7-3,2.9-4.2c1.2-1.1,2.6-2.1,4.3-2.7c1.7-0.7,3.5-0.9,5.4-0.9
	c2,0,3.8,0.3,5.4,0.9c1.7,0.6,3.1,1.5,4.3,2.7c1.2,1.2,2.2,2.5,2.8,4.2C333.4,133.5,333.7,135.2,333.7,137.1 M286.4,149.9h-4v-25.4
	h4V149.9z M259.2,129.6c-1.2-0.8-2.3-1.4-3.4-1.7c-1-0.4-2.1-0.5-3.4-0.5c-1.7,0-2.8,0.4-3.6,1c-0.7,0.7-1.1,1.4-1.1,2.4
	c0,0.9,0.2,1.6,0.7,2.1c0.5,0.5,1.3,0.8,2.4,1.1l4.2,1.1c1.1,0.3,2.1,0.6,3,1.1c0.9,0.4,1.7,0.9,2.2,1.5c0.7,0.6,1.1,1.3,1.4,2.1
	c0.3,0.8,0.5,1.8,0.5,3c0,1.1-0.2,2-0.6,3c-0.4,0.9-1.1,1.7-1.8,2.4c-0.8,0.7-1.8,1.2-3.1,1.6c-1.2,0.4-2.7,0.6-4.3,0.6
	c-0.9,0-1.8,0-2.7-0.1c-0.8-0.1-1.5-0.2-2.2-0.4c-0.8-0.2-1.5-0.4-2.1-0.7c-0.7-0.3-1.4-0.6-2.1-1.1l1.4-3.7c0.8,0.5,1.4,0.8,2,1.2
	c0.6,0.3,1.2,0.5,1.8,0.8c0.6,0.2,1.2,0.4,2,0.4c0.6,0.1,1.4,0.1,2.2,0.1c1.9,0,3.3-0.4,4.3-1.1c0.9-0.7,1.4-1.7,1.4-3
	s-0.4-2.2-1-2.8c-0.7-0.6-1.9-1.1-3.5-1.5l-4.6-1.1c-1.8-0.4-3.1-1.2-4-2.2c-0.9-1.1-1.4-2.6-1.4-4.4c0-2,0.8-3.6,2.3-4.9
	c1.5-1.2,3.6-1.8,6.2-1.8c1.8,0,3.4,0.2,4.8,0.5c1.4,0.4,2.7,1,3.9,1.8L259.2,129.6z M221.3,129.6c-1.2-0.8-2.4-1.4-3.4-1.7
	c-1-0.4-2.2-0.5-3.4-0.5c-1.7,0-2.8,0.4-3.6,1c-0.7,0.7-1.1,1.4-1.1,2.4c0,0.9,0.2,1.6,0.8,2.1c0.5,0.5,1.2,0.8,2.3,1.1l4.2,1.1
	c1.1,0.3,2.1,0.6,3,1.1c0.8,0.4,1.6,0.9,2.2,1.5c0.6,0.6,1.1,1.3,1.4,2.1c0.4,0.8,0.5,1.8,0.5,3c0,1.1-0.2,2-0.6,3
	c-0.4,0.9-1,1.7-1.8,2.4c-0.8,0.7-1.8,1.2-3.1,1.6c-1.2,0.4-2.7,0.6-4.3,0.6c-0.9,0-1.8,0-2.7-0.1c-0.8-0.1-1.5-0.2-2.2-0.4
	c-0.7-0.2-1.4-0.4-2.1-0.7c-0.7-0.3-1.4-0.6-2.1-1.1l1.4-3.7c0.7,0.5,1.4,0.8,2,1.2c0.6,0.3,1.2,0.5,1.8,0.8
	c0.6,0.2,1.2,0.4,1.9,0.4c0.6,0.1,1.4,0.1,2.2,0.1c1.9,0,3.4-0.4,4.3-1.1c0.9-0.7,1.4-1.7,1.4-3s-0.3-2.2-1-2.8
	c-0.7-0.6-1.8-1.1-3.4-1.5l-4.6-1.1c-1.8-0.4-3.1-1.2-4-2.2c-0.9-1.1-1.4-2.6-1.4-4.4c0-2,0.7-3.6,2.2-4.9c1.5-1.2,3.6-1.8,6.2-1.8
	c1.7,0,3.3,0.2,4.7,0.5c1.4,0.4,2.7,1,3.9,1.8L221.3,129.6z M168,124.5h17.2v3.4h-13.1v7h12v3.4h-12v8.3h13.7v3.4H168V124.5z
	 M147.9,124.5v3.4h-12.3v7.6h11.2v3.4h-11.2v11h-4.1v-25.4H147.9z M88.4,137.1c0,1.6,0.3,3,0.8,4.2c0.5,1.2,1.2,2.2,2,3
	c0.9,0.8,1.9,1.4,3,1.8c1.2,0.4,2.4,0.6,3.7,0.6c1.2,0,2.5-0.2,3.6-0.6c1.1-0.4,2.1-0.9,3-1.8c0.8-0.8,1.5-1.8,2-3
	c0.5-1.2,0.8-2.6,0.8-4.3c0-1.6-0.3-3-0.8-4.2c-0.5-1.2-1.2-2.2-2-3c-0.9-0.8-1.9-1.4-3-1.8c-1.1-0.4-2.4-0.6-3.6-0.6
	c-1.3,0-2.5,0.2-3.7,0.6c-1.1,0.4-2.1,1-3,1.8c-0.8,0.8-1.5,1.8-2,3C88.7,134.1,88.4,135.5,88.4,137.1 M111.5,137.1
	c0,2-0.4,3.8-1.1,5.4c-0.6,1.6-1.7,3-2.8,4.1c-1.2,1.1-2.7,2-4.3,2.7c-1.7,0.7-3.5,0.9-5.4,0.9c-2,0-3.7-0.3-5.4-0.9
	c-1.7-0.7-3.1-1.5-4.3-2.7c-1.2-1.2-2.2-2.5-2.8-4.1c-0.7-1.6-1.1-3.4-1.1-5.4c0-1.9,0.4-3.7,1.1-5.3c0.7-1.7,1.6-3,2.8-4.2
	c1.2-1.1,2.6-2.1,4.3-2.7c1.7-0.7,3.4-0.9,5.4-0.9c2,0,3.7,0.3,5.4,0.9c1.7,0.6,3.1,1.5,4.3,2.7c1.2,1.2,2.2,2.5,2.9,4.2
	C111.1,133.5,111.5,135.2,111.5,137.1 M48.6,135.9h5.7c0.8,0,1.5-0.1,2.1-0.2c0.6-0.2,1.2-0.4,1.7-0.7c0.5-0.3,0.9-0.8,1.2-1.3
	c0.3-0.5,0.4-1.2,0.4-2c0-1.5-0.5-2.5-1.5-3.1c-1-0.5-2.4-0.8-4.2-0.8h-5.5V135.9z M54.7,124.5c1.4,0,2.6,0.2,3.7,0.5
	c1.1,0.3,2.1,0.8,2.9,1.4c0.8,0.7,1.4,1.4,1.8,2.3c0.4,0.9,0.6,1.9,0.6,3c0,0.9-0.1,1.8-0.4,2.6c-0.3,0.8-0.7,1.5-1.2,2.1
	c-0.5,0.6-1.1,1.1-1.8,1.5c-0.7,0.4-1.4,0.7-2.2,0.9l7.2,11h-4.7L54,139.3h-5.4v10.6h-4.1v-25.4H54.7z M8.6,137.3h5.9
	c1.8,0,3.3-0.4,4.3-1.1c0.9-0.8,1.5-2,1.5-3.8c0-1.7-0.5-2.9-1.5-3.6c-1-0.7-2.5-1.1-4.7-1.1H8.6V137.3z M15.1,124.5
	c1.4,0,2.7,0.2,3.8,0.6c1.1,0.4,2.1,0.9,2.9,1.7c0.8,0.7,1.5,1.5,1.9,2.5c0.4,0.9,0.6,2,0.6,3.2c0,1.3-0.2,2.5-0.7,3.6
	c-0.5,1-1.2,1.8-2,2.5c-0.9,0.7-1.9,1.2-3,1.6c-1.2,0.3-2.4,0.5-3.8,0.5H8.6v9.2H4.6v-25.4H15.1z"/>
</svg>
